# 3ds Max Wavefront OBJ Exporter v0.97b - (c)2007 guruware
# File Created: 13.06.2018 22:48:55

mtllib Coral_F.mtl

#
# object Coral_F
#

v  3.5923 -2.5976 -0.1468
v  1.5506 -2.5976 -3.6831
v  1.6112 22.1844 -3.7880
v  3.7134 22.1844 -0.1468
v  -2.5328 -2.5976 -3.6831
v  -2.5933 22.1844 -3.7880
v  -4.5745 -2.5976 -0.1468
v  -4.6956 22.1844 -0.1468
v  -2.5328 -2.5976 3.3896
v  -2.5933 22.1844 3.4944
v  1.5506 -2.5976 3.3896
v  1.6112 22.1844 3.4944
v  0.8321 75.7822 2.1450
v  2.1553 76.7383 -0.1468
v  -3.1374 76.7383 -0.1468
v  -1.8143 75.7822 2.1450
v  3.9844 71.8141 -0.1468
v  1.7466 71.8141 -4.0226
v  0.8321 75.7822 -2.4386
v  -2.7288 71.8141 -4.0226
v  -1.8143 75.7822 -2.4386
v  -4.9665 71.8141 -0.1468
v  -2.7288 71.8141 3.7291
v  1.7466 71.8141 3.7291
v  1.7031 55.8471 -3.9471
v  3.8972 55.8471 -0.1468
v  -2.6852 55.8471 -3.9471
v  -4.8793 55.8471 -0.1468
v  -2.6852 55.8471 3.6536
v  1.7031 55.8471 3.6536
# 30 vertices

vn 1.0000 -0.0049 -0.0000
vn 0.5000 -0.0049 -0.8660
vn 0.5000 -0.0052 -0.8660
vn 1.0000 -0.0052 -0.0000
vn -0.5000 -0.0049 -0.8660
vn -0.5000 -0.0052 -0.8660
vn -1.0000 -0.0049 0.0000
vn -1.0000 -0.0052 -0.0000
vn -0.5000 -0.0049 0.8660
vn -0.5000 -0.0052 0.8660
vn 0.5000 -0.0049 0.8660
vn 0.5000 -0.0052 0.8660
vn 0.2880 0.6509 0.7024
vn 0.6145 0.7889 -0.0000
vn -0.6145 0.7889 0.0000
vn -0.2880 0.6509 0.7024
vn 0.9863 0.1651 -0.0000
vn 0.4900 0.1986 -0.8488
vn 0.2880 0.6509 -0.7024
vn -0.4900 0.1986 -0.8488
vn -0.2880 0.6509 -0.7024
vn -0.9863 0.1651 0.0000
vn -0.4900 0.1986 0.8488
vn 0.4900 0.1986 0.8488
vn 0.5000 -0.0055 -0.8660
vn 1.0000 -0.0055 -0.0000
vn -0.5000 -0.0055 -0.8660
vn -1.0000 -0.0055 0.0000
vn -0.5000 -0.0055 0.8660
vn 0.5000 -0.0055 0.8660
# 30 vertex normals

vt 0.5041 0.0177 0.0000
vt 0.5559 0.0175 0.0000
vt 0.5578 0.2987 0.0000
vt 0.5046 0.2989 0.0000
vt 0.6077 0.0170 0.0000
vt 0.6110 0.2983 0.0000
vt 0.6595 0.0163 0.0000
vt 0.6643 0.2977 0.0000
vt 0.3486 0.0167 0.0000
vt 0.4004 0.0173 0.0000
vt 0.3980 0.2987 0.0000
vt 0.3446 0.2983 0.0000
vt 0.4523 0.0176 0.0000
vt 0.4513 0.2988 0.0000
vt 0.4771 0.9292 0.0000
vt 0.5092 0.9483 0.0000
vt 0.4403 0.9776 0.0000
vt 0.4503 0.9419 0.0000
vt 0.5081 0.8852 0.0000
vt 0.5490 0.8854 0.0000
vt 0.5424 0.9300 0.0000
vt 0.5921 0.8959 0.0000
vt 0.5714 0.9383 0.0000
vt 0.6443 0.9249 0.0000
vt 0.5814 0.9753 0.0000
vt 0.3779 0.9311 0.0000
vt 0.4258 0.9006 0.0000
vt 0.4672 0.8880 0.0000
vt 0.5603 0.7186 0.0000
vt 0.5069 0.7180 0.0000
vt 0.6144 0.7210 0.0000
vt 0.6692 0.7243 0.0000
vt 0.3990 0.7226 0.0000
vt 0.3424 0.7275 0.0000
vt 0.4536 0.7193 0.0000
# 35 texture coords

o Coral_F
g Coral_F
usemtl wire_166229229
s 1
f 1/1/1 2/2/2 3/3/3 4/4/4 
f 2/2/2 5/5/5 6/6/6 3/3/3 
f 5/5/5 7/7/7 8/8/8 6/6/6 
f 7/9/7 9/10/9 10/11/10 8/12/8 
f 9/10/9 11/13/11 12/14/12 10/11/10 
f 11/13/11 1/1/1 4/4/4 12/14/12 
f 13/15/13 14/16/14 15/17/15 16/18/16 
f 17/19/17 18/20/18 19/21/19 14/16/14 
f 18/20/18 20/22/20 21/23/21 19/21/19 
f 20/22/20 22/24/22 15/25/15 21/23/21 
f 22/26/22 23/27/23 16/18/16 15/17/15 
f 23/27/23 24/28/24 13/15/13 16/18/16 
f 24/28/24 17/19/17 14/16/14 13/15/13 
f 14/16/14 19/21/19 21/23/21 15/25/15 
f 3/3/3 25/29/25 26/30/26 4/4/4 
f 6/6/6 27/31/27 25/29/25 3/3/3 
f 8/8/8 28/32/28 27/31/27 6/6/6 
f 10/11/10 29/33/29 28/34/28 8/12/8 
f 12/14/12 30/35/30 29/33/29 10/11/10 
f 4/4/4 26/30/26 30/35/30 12/14/12 
f 25/29/25 18/20/18 17/19/17 26/30/26 
f 27/31/27 20/22/20 18/20/18 25/29/25 
f 28/32/28 22/24/22 20/22/20 27/31/27 
f 29/33/29 23/27/23 22/26/22 28/34/28 
f 30/35/30 24/28/24 23/27/23 29/33/29 
f 26/30/26 17/19/17 24/28/24 30/35/30 
# 26 polygons

